<svg width="640" height="480" viewbox="0 0 640 480" xmlns="http://www.w3.org/2000/svg">
 <!-- Created with SVG-edit - http://svg-edit.googlecode.com/ -->
 <g>
<script type="text/ecmascript">  
<![CDATA[ 
function changeColor(evt) 
{ 
var con; 
var rect = evt.target; 

con=confirm("确定开灯吗"); //在页面上弹出对话框 
 
if(con==true)rect.setAttributeNS(null, "fill", "#ff7f00")   

else rect.setAttributeNS(null, "fill", "#b2b2b2") 
} 
]]></script> 


  <title>Layer 1</title>
  <path id="svg_1" d="m122.46201,85.47507c-6.87959,-0.01958 -14.32199,1.12041 -18.80405,4.78809c-3.48979,2.70338 -7.16217,5.57399 -7.96551,9.19409c-1.80796,6.39487 -1.72001,13.16063 1.2712,19.40012c1.73355,3.09805 5.74216,5.33815 8.15895,8.20316c3.19377,3.00009 4.70293,6.64679 4.27991,10.283c8.43584,0 16.87242,0 25.30792,0c0.02797,-5.43752 5.21724,-9.90929 9.84198,-14.13475c3.22903,-2.48642 5.31721,-5.49838 6.05377,-8.71822c1.42369,-5.77203 1.74628,-11.94855 -1.54837,-17.48334c-3.12798,-4.23384 -6.95918,-8.88128 -14.285,-10.48594c-3.92796,-0.93354 -8.16669,-1.091 -12.3108,-1.04622l0,0l0,0zm-12.90424,51.49616c8.49562,0 16.99027,0 25.48494,0c-1.52367,2.03085 -3.45702,4.25694 -2.38712,6.56212c-1.41721,2.00424 0.39677,4.00079 -1.93442,5.8343c-0.85913,2.51443 -5.74734,2.71037 -9.02154,2.77893c-3.53872,0.25545 -7.47163,-0.38419 -8.82078,-2.78313c-2.80711,-1.28276 0.57613,-2.84543 -1.59872,-4.28773c2.50787,-1.77191 -1.86644,-2.69846 -0.30989,-4.62292c-0.42773,-1.31355 -2.00095,-1.92729 -1.41248,-3.48157l0,0zm-0.05537,0.0056c8.49508,0 16.99081,0 25.48547,0c-0.6398,1.97276 -3.40863,3.83775 -2.35594,5.82381c0.59894,1.64806 -1.89355,2.99728 -0.39783,4.7384c-1.13873,2.08826 -3.41937,4.44731 -7.29681,4.44029c-3.74625,0.00421 -8.83121,0.81389 -11.15208,-1.61655c-0.87775,-1.46472 -3.71259,-2.34297 -1.53582,-3.93224c-2.69882,-1.31703 1.80947,-3.2681 -1.65839,-4.13658c1.64927,-2.07843 -1.77892,-3.2751 -1.0886,-5.31714l0,0l0,0l0,0zm-0.10667,-0.0434c8.4953,0 16.98995,0 25.48568,0c-0.63979,1.97276 -3.4086,3.83777 -2.35593,5.82384c0.59894,1.64804 -1.89355,2.99727 -0.39786,4.7377c-1.4731,1.52139 -3.05161,4.0043 -6.13873,4.18274c-3.38817,0.02591 -6.77635,0.0518 -10.16455,0.0777c-2.32204,-1.61935 -5.634,-3.51025 -3.81409,-5.66986c-2.56711,-1.17079 2.01409,-3.06517 -1.52592,-3.83426c1.64882,-2.07983 -1.77882,-3.2758 -1.08861,-5.31786l0,0zm6.96519,14.55113c3.60001,0 7.20002,0 10.80003,0c-1.16667,0.54866 -1.87312,1.82721 -3.5613,1.55009c-1.73657,-0.08888 -3.6871,0.13226 -5.29249,-0.14557c-0.64839,-0.46889 -1.29786,-0.93636 -1.94624,-1.40453zm3.91936,-14.65889c-1.24516,-11.92546 -2.51614,-16.98087 -7.20411,-24.1973c-4.68776,-7.21574 -1.00786,-4.8084 9.46648,-5.58937c10.47424,-0.7803 4.70108,2.25056 4.7054,7.82245c0.00322,5.57047 0.61075,8.36411 1.29139,13.19908c-0.67311,4.68103 0.62796,4.71323 -0.97419,8.4628" stroke-width="0.5" stroke="#000000" fill="#b2b2b2" onclick= "changeColor(evt)"/>
  <rect id="svg_2" height="422" width="472" y="31" x="31" stroke-linecap="null" stroke-linejoin="null" stroke-width="0.5" stroke="#000000" fill="none"/>
  <path id="svg_3" d="m264.40009,202.20419c-6.87958,-0.01958 -14.32199,1.12042 -18.80406,4.7881c-3.48979,2.70338 -7.16217,5.57399 -7.9655,9.19411c-1.80797,6.39484 -1.72002,13.16061 1.27119,19.40012c1.73355,3.09805 5.74216,5.33813 8.15895,8.20313c3.19379,3.00009 4.70293,6.64682 4.27991,10.28302c8.43585,0 16.87244,0 25.30792,0c0.02795,-5.4375 5.21722,-9.90927 9.84198,-14.13474c3.22903,-2.48645 5.3172,-5.49841 6.05377,-8.71823c1.42371,-5.77203 1.74628,-11.94855 -1.54837,-17.48334c-3.12796,-4.23384 -6.9592,-8.88129 -14.285,-10.48593c-3.92798,-0.93355 -8.16669,-1.091 -12.31079,-1.04623l0,0l0,0zm-12.90425,51.49619c8.49562,0 16.99028,0 25.48494,0c-1.52368,2.03085 -3.45703,4.25693 -2.38712,6.5621c-1.41721,2.00424 0.39679,4.00079 -1.93442,5.83429c-0.85913,2.51443 -5.74734,2.71039 -9.02151,2.77896c-3.53873,0.25543 -7.47165,-0.38422 -8.8208,-2.78314c-2.80711,-1.28275 0.57613,-2.84543 -1.59871,-4.28772c2.50786,-1.77194 -1.86646,-2.69849 -0.30989,-4.62292c-0.42775,-1.31357 -2.00096,-1.92731 -1.41249,-3.48157l0,0zm-0.05537,0.00558c8.49509,0 16.99081,0 25.48547,0c-0.6398,1.97278 -3.40863,3.83777 -2.35593,5.82382c0.59894,1.64804 -1.89359,2.99725 -0.39783,4.7384c-1.13873,2.08826 -3.41937,4.4473 -7.29681,4.44028c-3.74628,0.00421 -8.83121,0.81387 -11.1521,-1.61655c-0.87773,-1.46472 -3.71259,-2.34296 -1.53581,-3.93225c-2.69882,-1.31702 1.80948,-3.26807 -1.65839,-4.13657c1.64926,-2.07843 -1.77893,-3.27509 -1.08861,-5.31714l0,0l0,0l0,0zm-0.10666,-0.0434c8.4953,0 16.98993,0 25.48566,0c-0.63977,1.97275 -3.40857,3.83777 -2.35593,5.82382c0.59897,1.64807 -1.89352,2.99728 -0.39783,4.73773c-1.47311,1.52136 -3.05164,4.0043 -6.13876,4.18274c-3.38812,0.02588 -6.77634,0.05179 -10.16455,0.0777c-2.32202,-1.61938 -5.63397,-3.51025 -3.81407,-5.66986c-2.56709,-1.17081 2.0141,-3.06519 -1.52591,-3.83426c1.64882,-2.07986 -1.77882,-3.27582 -1.08861,-5.31787l0,0zm6.96518,14.55115c3.60001,0 7.20001,0 10.80005,0c-1.16669,0.54865 -1.87314,1.82721 -3.56131,1.55008c-1.73657,-0.08887 -3.6871,0.13226 -5.29248,-0.14557c-0.64841,-0.46887 -1.29785,-0.93634 -1.94626,-1.40451zm3.91937,-14.65891c-1.24518,-11.92548 -2.51617,-16.98087 -7.20412,-24.1973c-4.68776,-7.21573 -1.00786,-4.80838 9.46648,-5.58936c10.47424,-0.7803 4.70111,2.25055 4.70538,7.82245c0.00323,5.57047 0.61078,8.36411 1.29141,13.19907c-0.67313,4.68103 0.62796,4.71323 -0.97418,8.4628" stroke-width="0.5" stroke="#000000" fill="#b2b2b2" onclick= "changeColor(evt)"/>
  <path id="svg_4" d="m374.40009,90.20419c-6.87958,-0.01959 -14.32199,1.12041 -18.80408,4.78809c-3.48978,2.7034 -7.16217,5.57399 -7.96548,9.19411c-1.80795,6.39485 -1.72,13.16063 1.27121,19.40012c1.73355,3.09804 5.74216,5.33815 8.15894,8.20314c3.19379,3.00009 4.70294,6.6468 4.27991,10.28302c8.43585,0 16.87244,0 25.30792,0c0.02795,-5.43752 5.21722,-9.90929 9.84198,-14.13475c3.22903,-2.48643 5.3172,-5.4984 6.05377,-8.71822c1.42371,-5.77203 1.74628,-11.94855 -1.54837,-17.48334c-3.12796,-4.23386 -6.9592,-8.88129 -14.285,-10.48595c-3.92798,-0.93353 -8.16669,-1.09099 -12.31079,-1.04622l0,0l0,0zm-12.90424,51.49615c8.49561,0 16.99026,0 25.48492,0c-1.52368,2.03085 -3.45703,4.25696 -2.38712,6.56213c-1.41721,2.00424 0.39679,4.00079 -1.93442,5.83429c-0.85913,2.51443 -5.74734,2.71039 -9.02151,2.77893c-3.53873,0.25546 -7.47165,-0.38419 -8.8208,-2.78313c-2.80713,-1.28275 0.57614,-2.84543 -1.59869,-4.28773c2.50784,-1.7719 -1.86649,-2.69846 -0.30991,-4.62292c-0.42773,-1.31354 -2.00095,-1.92728 -1.41248,-3.48157l0,0zm-0.05539,0.0056c8.49509,0 16.99081,0 25.48547,0c-0.6398,1.97276 -3.40863,3.83775 -2.35593,5.82381c0.59894,1.64807 -1.89359,2.99728 -0.39783,4.7384c-1.13873,2.08827 -3.41937,4.44731 -7.29681,4.44031c-3.74628,0.0042 -8.83121,0.81387 -11.1521,-1.61655c-0.87775,-1.46472 -3.71259,-2.34299 -1.53583,-3.93224c-2.69879,-1.31703 1.80951,-3.26811 -1.65839,-4.13658c1.64929,-2.07843 -1.77893,-3.27512 -1.08859,-5.31715l0,0l0,0l0,0zm-0.10666,-0.04338c8.4953,0 16.98993,0 25.48566,0c-0.63977,1.97276 -3.40857,3.83777 -2.35593,5.82382c0.59897,1.64806 -1.89352,2.99728 -0.39783,4.7377c-1.47311,1.52139 -3.05164,4.0043 -6.13876,4.18275c-3.38812,0.02589 -6.77634,0.0518 -10.16455,0.0777c-2.32202,-1.61937 -5.63397,-3.51027 -3.81406,-5.66988c-2.56711,-1.17078 2.01407,-3.06516 -1.52591,-3.83424c1.6488,-2.07983 -1.77884,-3.2758 -1.08862,-5.31786l0,0zm6.96518,14.55113c3.60001,0 7.20001,0 10.80005,0c-1.16669,0.54865 -1.87314,1.82719 -3.56131,1.55009c-1.73657,-0.0889 -3.6871,0.13226 -5.29248,-0.14557c-0.64841,-0.46889 -1.29785,-0.93637 -1.94626,-1.40453zm3.91937,-14.65889c-1.24515,-11.92548 -2.51617,-16.98087 -7.20413,-24.1973c-4.68774,-7.21574 -1.00784,-4.8084 9.46649,-5.58939c10.47424,-0.78029 4.70111,2.25058 4.70538,7.82246c0.00323,5.57047 0.61078,8.36409 1.29141,13.19907c-0.67313,4.68105 0.62796,4.71324 -0.97418,8.46281" stroke-width="0.5" stroke="#000000" fill="#b2b2b2" onclick= "changeColor(evt)"/>
  <path id="svg_5" d="m124.40008,322.20419c-6.87959,-0.01956 -14.32199,1.12042 -18.80405,4.78812c-3.48979,2.70337 -7.16217,5.57397 -7.96551,9.19409c-1.80796,6.39484 -1.72001,13.16061 1.2712,19.40012c1.73354,3.09805 5.74216,5.33813 8.15894,8.20313c3.19379,3.00009 4.70293,6.64682 4.27991,10.28302c8.43584,0 16.87242,0 25.30792,0c0.02797,-5.4375 5.21724,-9.90927 9.84198,-14.13474c3.22903,-2.48645 5.31721,-5.49841 6.05377,-8.71823c1.42369,-5.77203 1.74628,-11.94855 -1.54837,-17.48334c-3.12798,-4.23386 -6.95918,-8.88129 -14.285,-10.48593c-3.92796,-0.93353 -8.16669,-1.091 -12.3108,-1.04623l0,0l0,0zm-12.90424,51.49619c8.49562,0 16.99028,0 25.48494,0c-1.52367,2.03085 -3.45702,4.25693 -2.38712,6.5621c-1.41721,2.00424 0.39677,4.00079 -1.93442,5.83429c-0.85913,2.51443 -5.74734,2.71039 -9.02154,2.77896c-3.53872,0.25543 -7.47164,-0.38422 -8.82078,-2.78314c-2.80711,-1.28275 0.57613,-2.84543 -1.59872,-4.28772c2.50787,-1.77194 -1.86645,-2.69849 -0.30989,-4.62292c-0.42774,-1.31357 -2.00096,-1.92731 -1.41248,-3.48157l0,0zm-0.05537,0.00558c8.49506,0 16.99081,0 25.48547,0c-0.6398,1.97278 -3.40863,3.83777 -2.35594,5.82382c0.59894,1.64804 -1.89355,2.99725 -0.39783,4.7384c-1.13873,2.08826 -3.41937,4.4473 -7.29681,4.44028c-3.74625,0.00421 -8.83121,0.81387 -11.15208,-1.61655c-0.87775,-1.46472 -3.71259,-2.34296 -1.53582,-3.93225c-2.69882,-1.31702 1.80947,-3.26807 -1.65839,-4.13657c1.64925,-2.07843 -1.77893,-3.27509 -1.0886,-5.31714l0,0l0,0l0,0zm-0.10667,-0.0434c8.4953,0 16.98995,0 25.48568,0c-0.63979,1.97275 -3.4086,3.83777 -2.35593,5.82382c0.59894,1.64807 -1.89355,2.99728 -0.39786,4.73773c-1.4731,1.52136 -3.05161,4.0043 -6.13873,4.18274c-3.38817,0.02588 -6.77635,0.05179 -10.16455,0.0777c-2.32205,-1.61938 -5.634,-3.51025 -3.8141,-5.66986c-2.56709,-1.17081 2.01411,-3.06519 -1.52591,-3.83426c1.64883,-2.07986 -1.77882,-3.27582 -1.08861,-5.31787l0,0zm6.96519,14.55115c3.6,0 7.20002,0 10.80003,0c-1.16667,0.54865 -1.87312,1.82721 -3.5613,1.55008c-1.73656,-0.08887 -3.6871,0.13226 -5.29249,-0.14557c-0.64839,-0.46887 -1.29786,-0.93634 -1.94624,-1.40451zm3.91936,-14.65891c-1.24516,-11.92548 -2.51614,-16.98087 -7.20411,-24.1973c-4.68776,-7.21573 -1.00786,-4.80838 9.46649,-5.58936c10.47423,-0.7803 4.70108,2.25055 4.70538,7.82245c0.00322,5.57047 0.61076,8.36411 1.2914,13.19907c-0.67311,4.68103 0.62796,4.71323 -0.9742,8.4628" stroke-width="0.5" stroke="#000000" fill="#b2b2b2" onclick= "changeColor(evt)"/>
  <path id="svg_6" d="m380.40009,325.20419c-6.87958,-0.01956 -14.32199,1.12042 -18.80408,4.78812c-3.48978,2.70337 -7.16217,5.57397 -7.96548,9.19409c-1.80795,6.39484 -1.72,13.16061 1.27121,19.40012c1.73355,3.09805 5.74216,5.33813 8.15894,8.20313c3.19379,3.00009 4.70294,6.64682 4.27991,10.28302c8.43585,0 16.87244,0 25.30792,0c0.02795,-5.4375 5.21722,-9.90927 9.84198,-14.13474c3.22903,-2.48645 5.3172,-5.49841 6.05377,-8.71823c1.42371,-5.77203 1.74628,-11.94855 -1.54837,-17.48334c-3.12796,-4.23386 -6.9592,-8.88129 -14.285,-10.48593c-3.92798,-0.93353 -8.16669,-1.091 -12.31079,-1.04623l0,0l0,0zm-12.90424,51.49619c8.49561,0 16.99026,0 25.48492,0c-1.52368,2.03085 -3.45703,4.25693 -2.38712,6.5621c-1.41721,2.00424 0.39679,4.00079 -1.93442,5.83429c-0.85913,2.51443 -5.74734,2.71039 -9.02151,2.77896c-3.53873,0.25543 -7.47165,-0.38422 -8.8208,-2.78314c-2.80713,-1.28275 0.57614,-2.84543 -1.59869,-4.28772c2.50784,-1.77194 -1.86649,-2.69849 -0.30991,-4.62292c-0.42773,-1.31357 -2.00095,-1.92731 -1.41248,-3.48157l0,0zm-0.05539,0.00558c8.49509,0 16.99081,0 25.48547,0c-0.6398,1.97278 -3.40863,3.83777 -2.35593,5.82382c0.59894,1.64804 -1.89359,2.99725 -0.39783,4.7384c-1.13873,2.08826 -3.41937,4.4473 -7.29681,4.44028c-3.74628,0.00421 -8.83121,0.81387 -11.1521,-1.61655c-0.87775,-1.46472 -3.71259,-2.34296 -1.53583,-3.93225c-2.69879,-1.31702 1.80951,-3.26807 -1.65839,-4.13657c1.64929,-2.07843 -1.77893,-3.27509 -1.08859,-5.31714l0,0l0,0l0,0zm-0.10666,-0.0434c8.4953,0 16.98993,0 25.48566,0c-0.63977,1.97275 -3.40857,3.83777 -2.35593,5.82382c0.59897,1.64807 -1.89352,2.99728 -0.39783,4.73773c-1.47311,1.52136 -3.05164,4.0043 -6.13876,4.18274c-3.38812,0.02588 -6.77634,0.05179 -10.16455,0.0777c-2.32202,-1.61938 -5.63397,-3.51025 -3.81406,-5.66986c-2.56711,-1.17081 2.01407,-3.06519 -1.52591,-3.83426c1.6488,-2.07986 -1.77884,-3.27582 -1.08862,-5.31787l0,0zm6.96518,14.55115c3.60001,0 7.20001,0 10.80005,0c-1.16669,0.54865 -1.87314,1.82721 -3.56131,1.55008c-1.73657,-0.08887 -3.6871,0.13226 -5.29248,-0.14557c-0.64841,-0.46887 -1.29785,-0.93634 -1.94626,-1.40451zm3.91937,-14.65891c-1.24515,-11.92548 -2.51617,-16.98087 -7.20413,-24.1973c-4.68774,-7.21573 -1.00784,-4.80838 9.46649,-5.58936c10.47424,-0.7803 4.70111,2.25055 4.70538,7.82245c0.00323,5.57047 0.61078,8.36411 1.29141,13.19907c-0.67313,4.68103 0.62796,4.71323 -0.97418,8.4628" stroke-width="0.5" stroke="#000000" fill="#b2b2b2" onclick= "changeColor(evt)"/>
 </g>
</svg>
